#!OML:ASF I:\golf\golf\golf 2\Subject 1\2002-09-07\Subject1.ASF
:FULLY-SPECIFIED
:DEGREES
550
root -0.879425 18.0707 -3.50572 8.43548 -8.70536 -1.78701
lowerback -4.94579 -0.827794 -4.60557
upperback -2.29802 -0.976489 6.42478
thorax 0.57739 -0.446588 9.33485
lowerneck -22.3893 2.48956 2.13121
upperneck 18.714 4.05508 -5.57666
head 9.79727 1.36356 -1.70913
rclavicle 6.5102e-015 1.11319e-014
rhumerus -29.5422 -7.84643 -71.4484
rradius 22.7531
rwrist -8.47674
rhand -24.7092 8.81885
rfingers 7.12502
rthumb 1.7924 -21.1534
lclavicle 6.5102e-015 1.11319e-014
lhumerus -27.3549 -6.80102 95.3576
lradius 26.9457
lwrist 3.96336
lhand -8.75429 35.5939
lfingers 7.12502
lthumb 17.183 64.8541
rfemur -12.4491 0.29656 25.1375
rtibia 24.9661
rfoot -16.0917 -1.02555
rtoes 11.9538
lfemur -11.6075 5.46941 -12.7772
ltibia 29.0273
lfoot -16.9668 -1.84691
ltoes -16.7186
551
root -0.880393 18.0633 -3.49487 8.46959 -8.50465 -1.76921
lowerback -5.20911 -0.92826 -4.63509
upperback -2.43707 -1.10231 6.45996
thorax 0.605179 -0.506637 9.38227
lowerneck -22.4464 2.51656 2.25722
upperneck 18.9712 4.12181 -5.81351
head 9.91111 1.36971 -1.80527
rclavicle 1.19519e-014 -2.70347e-014
rhumerus -30.0224 -8.04701 -71.2502
rradius 22.883
rwrist -8.80173
rhand -24.6183 8.79811
rfingers 7.12502
rthumb 1.88022 -21.1733
lclavicle 1.19519e-014 -2.70347e-014
lhumerus -27.2299 -6.09574 95.0366
lradius 26.6047
lwrist 2.62409
lhand -6.57503 36.6035
lfingers 7.12502
lthumb 19.2795 65.6678
rfemur -12.4678 0.325866 25.1413
rtibia 25.0342
rfoot -16.1391 -1.20077
rtoes 12.5075
lfemur -11.1145 5.24815 -13.0007
ltibia 27.7989
lfoot -16.3156 -1.92404
ltoes -14.3348
552
root -0.880244 18.058 -3.4804 8.45579 -8.36075 -1.80797
lowerback -5.48303 -1.02545 -4.59885
upperback -2.54235 -1.22802 6.51555
thorax 0.673567 -0.569715 9.41204
lowerneck -22.3424 2.60673 2.40942
upperneck 19.0712 4.26457 -6.06571
head 9.94519 1.41666 -1.89928
rclavicle 9.83984e-015 -8.11041e-014
rhumerus -30.4127 -8.36845 -71.0129
rradius 22.8364
rwrist -8.86998
rhand -24.4495 8.89739
rfingers 7.12502
rthumb 2.04321 -21.0726
lclavicle 9.83984e-015 -8.11041e-014
lhumerus -27.1721 -5.48066 94.7653
lradius 26.3452
lwrist 1.63617
lhand -4.39677 37.701
lfingers 7.12502
lthumb 21.3729 66.5422
rfemur -12.4153 0.303091 25.1852
rtibia 25.0881
rfoot -16.2083 -1.27705
rtoes 12.7049
lfemur -10.5713 5.07377 -13.1934
ltibia 26.627
lfoot -15.5949 -1.40312
ltoes -11.5239
553
root -0.879848 18.0578 -3.46629 8.50335 -8.16028 -1.77496
lowerback -5.77086 -1.14332 -4.62991
upperback -2.68866 -1.37649 6.55266
thorax 0.712106 -0.641393 9.45924
lowerneck -22.3418 2.67462 2.4108
upperneck 19.2944 4.38979 -6.13663
head 10.0332 1.46185 -1.90759
rclavicle 2.41523e-014 -5.725e-014
rhumerus -30.8555 -8.59577 -70.8107
rradius 22.8407
rwrist -9.02416
rhand -24.5232 9.06776
rfingers 7.12502
rthumb 1.97208 -20.9029
lclavicle 2.41523e-014 -5.725e-014
lhumerus -27.162 -5.4472 94.7759
lradius 25.9588
lwrist 2.32748
lhand -5.31193 36.9565
lfingers 7.12502
lthumb 20.4937 65.8948
rfemur -12.4207 0.210691 25.1577
rtibia 25.0803
rfoot -16.2437 -1.35114
rtoes 12.4328
lfemur -10.1586 4.83028 -13.4792
ltibia 25.5915
lfoot -14.8746 0.142302
ltoes -10.7332
554
root -0.876061 18.061 -3.45319 8.60737 -7.9789 -1.74998
lowerback -6.09903 -1.24189 -4.61838
upperback -2.8282 -1.50072 6.59186
thorax 0.774686 -0.702194 9.48379
lowerneck -22.4012 2.73393 2.38323
upperneck 19.5023 4.51414 -6.21678
head 10.1266 1.50219 -1.9141
rclavicle 2.34131e-014 -6.52014e-014
rhumerus -31.3266 -8.6428 -70.6454
rradius 22.9478
rwrist -9.28126
rhand -24.5389 9.14262
rfingers 7.12502
rthumb 1.95692 -20.8282
lclavicle 2.34131e-014 -6.52014e-014
lhumerus -27.0401 -5.0561 94.6337
lradius 25.6292
lwrist 1.81916
lhand -5.30026 36.6301
lfingers 7.12502
lthumb 20.5049 65.5672
rfemur -12.4765 0.0520875 25.1256
rtibia 25.0379
rfoot -16.2435 -1.38706
rtoes 11.4728
lfemur -9.82339 4.57493 -13.7491
ltibia 24.6962
lfoot -14.2774 2.04218
ltoes -10.7604
555
root -0.870233 18.068 -3.4397 8.66724 -7.79552 -1.71779
lowerback -6.38652 -1.32431 -4.59884
upperback -2.93719 -1.60506 6.6194
thorax 0.841983 -0.754123 9.49168
lowerneck -22.3769 2.75778 2.34553
upperneck 19.5865 4.57954 -6.27136
head 10.1567 1.52155 -1.91813
rclavicle -1.14185e-014 -9.54166e-015
rhumerus -31.7827 -8.66139 -70.5
rradius 23.0837
rwrist -9.46946
rhand -24.4531 9.01575
rfingers 7.12502
rthumb 2.03976 -20.9542
lclavicle -1.14185e-014 -9.54166e-015
lhumerus -26.9264 -4.69161 94.5008
lradius 25.3587
lwrist 1.24702
lhand -4.52604 36.4146
lfingers 7.12502
lthumb 21.2487 65.2699
rfemur -12.4817 -0.132011 25.076
rtibia 25.0014
rfoot -16.2541 -1.38936
rtoes 10.5732
lfemur -9.48955 4.32069 -14.0104
ltibia 23.9425
lfoot -14.0266 3.37181
ltoes -10.6673
